# xmcd
#
# Track frame offsets: 
#        150
#        11143
#        23295
#        38383
#        52935
#        66740
#        80493
#        93768
#        105833
#        118590
#        128098
#        141088
#
# Disc length: 2042 seconds
#
# Revision: 6
# Processed by: cddbd v1.5.2PL0 Copyright (c) Steve Scherf et al.
# Submitted via: ExactAudioCopyFreeDBPlugin 1.0
#
DISCID=8907f80c
DTITLE=Otis Redding - The Great Otis Redding Sings Soul Ballads
DYEAR=1965
DGENRE=Soul
TTITLE0=That's How Strong My Love Is
TTITLE1=Chained and Bound
TTITLE2=A Woman, a Lover, a Friend
TTITLE3=Your One and Only Man
TTITLE4=Nothing Can Change This Love
TTITLE5=It's Too Late
TTITLE6=For Your Precious Love
TTITLE7=I Want to Thank You
TTITLE8=Come to Me
TTITLE9=Home in Your Heart
TTITLE10=Keep Your Arms Around Me
TTITLE11=Mr. Pitiful
EXTD=
EXTT0=
EXTT1=
EXTT2=
EXTT3=
EXTT4=
EXTT5=
EXTT6=
EXTT7=
EXTT8=
EXTT9=
EXTT10=
EXTT11=
PLAYORDER=
